<mxfile host="Electron" modified="2024-03-20T14:03:58.088Z" agent="Mozilla/5.0 (Windows NT 10.0; Win64; x64) AppleWebKit/537.36 (KHTML, like Gecko) draw.io/24.0.4 Chrome/120.0.6099.109 Electron/28.1.0 Safari/537.36" etag="diSPlSfrhdjUrZfc2Jl4" version="24.0.4" type="device">
  <diagram name="Página-1" id="sRf05JYX2PPPhJtT71ca">
    <mxGraphModel dx="3369" dy="1330" grid="1" gridSize="10" guides="1" tooltips="1" connect="1" arrows="1" fold="1" page="1" pageScale="1" pageWidth="1169" pageHeight="827" math="0" shadow="0">
      <root>
        <mxCell id="0" />
        <mxCell id="1" parent="0" />
        <mxCell id="QGQFObyXgyorkLvWXiFo-9" value="Cliente" style="swimlane;fontStyle=0;childLayout=stackLayout;horizontal=1;startSize=30;horizontalStack=0;resizeParent=1;resizeParentMax=0;resizeLast=0;collapsible=1;marginBottom=0;whiteSpace=wrap;html=1;" parent="1" vertex="1">
          <mxGeometry x="-800" y="10" width="140" height="150" as="geometry" />
        </mxCell>
        <mxCell id="QGQFObyXgyorkLvWXiFo-10" value="Nome" style="text;strokeColor=none;fillColor=none;align=left;verticalAlign=middle;spacingLeft=4;spacingRight=4;overflow=hidden;points=[[0,0.5],[1,0.5]];portConstraint=eastwest;rotatable=0;whiteSpace=wrap;html=1;" parent="QGQFObyXgyorkLvWXiFo-9" vertex="1">
          <mxGeometry y="30" width="140" height="30" as="geometry" />
        </mxCell>
        <mxCell id="QGQFObyXgyorkLvWXiFo-11" value="Endereço" style="text;strokeColor=none;fillColor=none;align=left;verticalAlign=middle;spacingLeft=4;spacingRight=4;overflow=hidden;points=[[0,0.5],[1,0.5]];portConstraint=eastwest;rotatable=0;whiteSpace=wrap;html=1;" parent="QGQFObyXgyorkLvWXiFo-9" vertex="1">
          <mxGeometry y="60" width="140" height="30" as="geometry" />
        </mxCell>
        <mxCell id="QGQFObyXgyorkLvWXiFo-12" value="Nif" style="text;strokeColor=none;fillColor=none;align=left;verticalAlign=middle;spacingLeft=4;spacingRight=4;overflow=hidden;points=[[0,0.5],[1,0.5]];portConstraint=eastwest;rotatable=0;whiteSpace=wrap;html=1;" parent="QGQFObyXgyorkLvWXiFo-9" vertex="1">
          <mxGeometry y="90" width="140" height="30" as="geometry" />
        </mxCell>
        <mxCell id="QGQFObyXgyorkLvWXiFo-13" value="Telefone" style="text;strokeColor=none;fillColor=none;align=left;verticalAlign=middle;spacingLeft=4;spacingRight=4;overflow=hidden;points=[[0,0.5],[1,0.5]];portConstraint=eastwest;rotatable=0;whiteSpace=wrap;html=1;" parent="QGQFObyXgyorkLvWXiFo-9" vertex="1">
          <mxGeometry y="120" width="140" height="30" as="geometry" />
        </mxCell>
        <mxCell id="QGQFObyXgyorkLvWXiFo-14" value="Instalação" style="swimlane;fontStyle=0;childLayout=stackLayout;horizontal=1;startSize=30;horizontalStack=0;resizeParent=1;resizeParentMax=0;resizeLast=0;collapsible=1;marginBottom=0;whiteSpace=wrap;html=1;" parent="1" vertex="1">
          <mxGeometry x="-800" y="343.55" width="150" height="90" as="geometry" />
        </mxCell>
        <mxCell id="QGQFObyXgyorkLvWXiFo-15" value="Id" style="text;strokeColor=none;fillColor=none;align=left;verticalAlign=middle;spacingLeft=4;spacingRight=4;overflow=hidden;points=[[0,0.5],[1,0.5]];portConstraint=eastwest;rotatable=0;whiteSpace=wrap;html=1;" parent="QGQFObyXgyorkLvWXiFo-14" vertex="1">
          <mxGeometry y="30" width="150" height="30" as="geometry" />
        </mxCell>
        <mxCell id="QGQFObyXgyorkLvWXiFo-16" value="Endereço" style="text;strokeColor=none;fillColor=none;align=left;verticalAlign=middle;spacingLeft=4;spacingRight=4;overflow=hidden;points=[[0,0.5],[1,0.5]];portConstraint=eastwest;rotatable=0;whiteSpace=wrap;html=1;" parent="QGQFObyXgyorkLvWXiFo-14" vertex="1">
          <mxGeometry y="60" width="150" height="30" as="geometry" />
        </mxCell>
        <mxCell id="QGQFObyXgyorkLvWXiFo-18" value="Contrato" style="swimlane;fontStyle=0;childLayout=stackLayout;horizontal=1;startSize=30;horizontalStack=0;resizeParent=1;resizeParentMax=0;resizeLast=0;collapsible=1;marginBottom=0;whiteSpace=wrap;html=1;" parent="1" vertex="1">
          <mxGeometry x="-795" y="650" width="140" height="150" as="geometry" />
        </mxCell>
        <mxCell id="QGQFObyXgyorkLvWXiFo-19" value="Data_inicio" style="text;strokeColor=none;fillColor=none;align=left;verticalAlign=middle;spacingLeft=4;spacingRight=4;overflow=hidden;points=[[0,0.5],[1,0.5]];portConstraint=eastwest;rotatable=0;whiteSpace=wrap;html=1;" parent="QGQFObyXgyorkLvWXiFo-18" vertex="1">
          <mxGeometry y="30" width="140" height="30" as="geometry" />
        </mxCell>
        <mxCell id="QGQFObyXgyorkLvWXiFo-20" value="Duração" style="text;strokeColor=none;fillColor=none;align=left;verticalAlign=middle;spacingLeft=4;spacingRight=4;overflow=hidden;points=[[0,0.5],[1,0.5]];portConstraint=eastwest;rotatable=0;whiteSpace=wrap;html=1;" parent="QGQFObyXgyorkLvWXiFo-18" vertex="1">
          <mxGeometry y="60" width="140" height="30" as="geometry" />
        </mxCell>
        <mxCell id="QGQFObyXgyorkLvWXiFo-21" value="Serviços" style="text;strokeColor=none;fillColor=none;align=left;verticalAlign=middle;spacingLeft=4;spacingRight=4;overflow=hidden;points=[[0,0.5],[1,0.5]];portConstraint=eastwest;rotatable=0;whiteSpace=wrap;html=1;" parent="QGQFObyXgyorkLvWXiFo-18" vertex="1">
          <mxGeometry y="90" width="140" height="30" as="geometry" />
        </mxCell>
        <mxCell id="QGQFObyXgyorkLvWXiFo-22" value="Faturação" style="text;strokeColor=none;fillColor=none;align=left;verticalAlign=middle;spacingLeft=4;spacingRight=4;overflow=hidden;points=[[0,0.5],[1,0.5]];portConstraint=eastwest;rotatable=0;whiteSpace=wrap;html=1;" parent="QGQFObyXgyorkLvWXiFo-18" vertex="1">
          <mxGeometry y="120" width="140" height="30" as="geometry" />
        </mxCell>
        <mxCell id="QGQFObyXgyorkLvWXiFo-23" value="Serviços" style="swimlane;fontStyle=0;childLayout=stackLayout;horizontal=1;startSize=30;horizontalStack=0;resizeParent=1;resizeParentMax=0;resizeLast=0;collapsible=1;marginBottom=0;whiteSpace=wrap;html=1;" parent="1" vertex="1">
          <mxGeometry x="-170" y="490" width="140" height="90" as="geometry" />
        </mxCell>
        <mxCell id="QGQFObyXgyorkLvWXiFo-24" value="id" style="text;strokeColor=none;fillColor=none;align=left;verticalAlign=middle;spacingLeft=4;spacingRight=4;overflow=hidden;points=[[0,0.5],[1,0.5]];portConstraint=eastwest;rotatable=0;whiteSpace=wrap;html=1;" parent="QGQFObyXgyorkLvWXiFo-23" vertex="1">
          <mxGeometry y="30" width="140" height="30" as="geometry" />
        </mxCell>
        <mxCell id="QGQFObyXgyorkLvWXiFo-25" value="Nível" style="text;strokeColor=none;fillColor=none;align=left;verticalAlign=middle;spacingLeft=4;spacingRight=4;overflow=hidden;points=[[0,0.5],[1,0.5]];portConstraint=eastwest;rotatable=0;whiteSpace=wrap;html=1;" parent="QGQFObyXgyorkLvWXiFo-23" vertex="1">
          <mxGeometry y="60" width="140" height="30" as="geometry" />
        </mxCell>
        <mxCell id="QGQFObyXgyorkLvWXiFo-28" value="Dispositivo" style="swimlane;fontStyle=0;childLayout=stackLayout;horizontal=1;startSize=30;horizontalStack=0;resizeParent=1;resizeParentMax=0;resizeLast=0;collapsible=1;marginBottom=0;whiteSpace=wrap;html=1;" parent="1" vertex="1">
          <mxGeometry x="-490" y="10" width="140" height="210" as="geometry" />
        </mxCell>
        <mxCell id="QGQFObyXgyorkLvWXiFo-29" value="id" style="text;strokeColor=none;fillColor=none;align=left;verticalAlign=middle;spacingLeft=4;spacingRight=4;overflow=hidden;points=[[0,0.5],[1,0.5]];portConstraint=eastwest;rotatable=0;whiteSpace=wrap;html=1;" parent="QGQFObyXgyorkLvWXiFo-28" vertex="1">
          <mxGeometry y="30" width="140" height="30" as="geometry" />
        </mxCell>
        <mxCell id="QGQFObyXgyorkLvWXiFo-30" value="Modelo" style="text;strokeColor=none;fillColor=none;align=left;verticalAlign=middle;spacingLeft=4;spacingRight=4;overflow=hidden;points=[[0,0.5],[1,0.5]];portConstraint=eastwest;rotatable=0;whiteSpace=wrap;html=1;" parent="QGQFObyXgyorkLvWXiFo-28" vertex="1">
          <mxGeometry y="60" width="140" height="30" as="geometry" />
        </mxCell>
        <mxCell id="QGQFObyXgyorkLvWXiFo-31" value="Tipo" style="text;strokeColor=none;fillColor=none;align=left;verticalAlign=middle;spacingLeft=4;spacingRight=4;overflow=hidden;points=[[0,0.5],[1,0.5]];portConstraint=eastwest;rotatable=0;whiteSpace=wrap;html=1;" parent="QGQFObyXgyorkLvWXiFo-28" vertex="1">
          <mxGeometry y="90" width="140" height="30" as="geometry" />
        </mxCell>
        <mxCell id="QGQFObyXgyorkLvWXiFo-32" value="Data_ins" style="text;strokeColor=none;fillColor=none;align=left;verticalAlign=middle;spacingLeft=4;spacingRight=4;overflow=hidden;points=[[0,0.5],[1,0.5]];portConstraint=eastwest;rotatable=0;whiteSpace=wrap;html=1;" parent="QGQFObyXgyorkLvWXiFo-28" vertex="1">
          <mxGeometry y="120" width="140" height="30" as="geometry" />
        </mxCell>
        <mxCell id="QGQFObyXgyorkLvWXiFo-33" value="Estado" style="text;strokeColor=none;fillColor=none;align=left;verticalAlign=middle;spacingLeft=4;spacingRight=4;overflow=hidden;points=[[0,0.5],[1,0.5]];portConstraint=eastwest;rotatable=0;whiteSpace=wrap;html=1;" parent="QGQFObyXgyorkLvWXiFo-28" vertex="1">
          <mxGeometry y="150" width="140" height="30" as="geometry" />
        </mxCell>
        <mxCell id="QGQFObyXgyorkLvWXiFo-34" value="Especificações" style="text;strokeColor=none;fillColor=none;align=left;verticalAlign=middle;spacingLeft=4;spacingRight=4;overflow=hidden;points=[[0,0.5],[1,0.5]];portConstraint=eastwest;rotatable=0;whiteSpace=wrap;html=1;" parent="QGQFObyXgyorkLvWXiFo-28" vertex="1">
          <mxGeometry y="180" width="140" height="30" as="geometry" />
        </mxCell>
        <mxCell id="QGQFObyXgyorkLvWXiFo-35" value="Faturação" style="swimlane;fontStyle=0;childLayout=stackLayout;horizontal=1;startSize=30;horizontalStack=0;resizeParent=1;resizeParentMax=0;resizeLast=0;collapsible=1;marginBottom=0;whiteSpace=wrap;html=1;" parent="1" vertex="1">
          <mxGeometry x="-1090" y="400" width="140" height="150" as="geometry" />
        </mxCell>
        <mxCell id="QGQFObyXgyorkLvWXiFo-36" value="id" style="text;strokeColor=none;fillColor=none;align=left;verticalAlign=middle;spacingLeft=4;spacingRight=4;overflow=hidden;points=[[0,0.5],[1,0.5]];portConstraint=eastwest;rotatable=0;whiteSpace=wrap;html=1;" parent="QGQFObyXgyorkLvWXiFo-35" vertex="1">
          <mxGeometry y="30" width="140" height="30" as="geometry" />
        </mxCell>
        <mxCell id="QGQFObyXgyorkLvWXiFo-37" value="Data" style="text;strokeColor=none;fillColor=none;align=left;verticalAlign=middle;spacingLeft=4;spacingRight=4;overflow=hidden;points=[[0,0.5],[1,0.5]];portConstraint=eastwest;rotatable=0;whiteSpace=wrap;html=1;" parent="QGQFObyXgyorkLvWXiFo-35" vertex="1">
          <mxGeometry y="60" width="140" height="30" as="geometry" />
        </mxCell>
        <mxCell id="QGQFObyXgyorkLvWXiFo-38" value="Pacote_serviço" style="text;strokeColor=none;fillColor=none;align=left;verticalAlign=middle;spacingLeft=4;spacingRight=4;overflow=hidden;points=[[0,0.5],[1,0.5]];portConstraint=eastwest;rotatable=0;whiteSpace=wrap;html=1;" parent="QGQFObyXgyorkLvWXiFo-35" vertex="1">
          <mxGeometry y="90" width="140" height="30" as="geometry" />
        </mxCell>
        <mxCell id="QGQFObyXgyorkLvWXiFo-39" value="Estado" style="text;strokeColor=none;fillColor=none;align=left;verticalAlign=middle;spacingLeft=4;spacingRight=4;overflow=hidden;points=[[0,0.5],[1,0.5]];portConstraint=eastwest;rotatable=0;whiteSpace=wrap;html=1;" parent="QGQFObyXgyorkLvWXiFo-35" vertex="1">
          <mxGeometry y="120" width="140" height="30" as="geometry" />
        </mxCell>
        <mxCell id="8kNGD3CjJhXe5o-IHTc_-2" value="Contrato Serviço" style="swimlane;fontStyle=0;childLayout=stackLayout;horizontal=1;startSize=30;horizontalStack=0;resizeParent=1;resizeParentMax=0;resizeLast=0;collapsible=1;marginBottom=0;whiteSpace=wrap;html=1;" vertex="1" parent="1">
          <mxGeometry x="-390" y="670" width="140" height="90" as="geometry" />
        </mxCell>
        <mxCell id="8kNGD3CjJhXe5o-IHTc_-3" value="id_contrato" style="text;strokeColor=none;fillColor=none;align=left;verticalAlign=middle;spacingLeft=4;spacingRight=4;overflow=hidden;points=[[0,0.5],[1,0.5]];portConstraint=eastwest;rotatable=0;whiteSpace=wrap;html=1;" vertex="1" parent="8kNGD3CjJhXe5o-IHTc_-2">
          <mxGeometry y="30" width="140" height="30" as="geometry" />
        </mxCell>
        <mxCell id="8kNGD3CjJhXe5o-IHTc_-4" value="id_servico" style="text;strokeColor=none;fillColor=none;align=left;verticalAlign=middle;spacingLeft=4;spacingRight=4;overflow=hidden;points=[[0,0.5],[1,0.5]];portConstraint=eastwest;rotatable=0;whiteSpace=wrap;html=1;" vertex="1" parent="8kNGD3CjJhXe5o-IHTc_-2">
          <mxGeometry y="60" width="140" height="30" as="geometry" />
        </mxCell>
        <mxCell id="8kNGD3CjJhXe5o-IHTc_-14" value="n" style="edgeStyle=orthogonalEdgeStyle;rounded=0;orthogonalLoop=1;jettySize=auto;html=1;exitX=0.5;exitY=1;exitDx=0;exitDy=0;" edge="1" parent="1" source="8kNGD3CjJhXe5o-IHTc_-6">
          <mxGeometry relative="1" as="geometry">
            <mxPoint x="-730" y="340.05" as="targetPoint" />
            <mxPoint x="-729.952380952381" y="300.002380952381" as="sourcePoint" />
          </mxGeometry>
        </mxCell>
        <mxCell id="8kNGD3CjJhXe5o-IHTc_-6" value="Pode ter" style="rhombus;whiteSpace=wrap;html=1;" vertex="1" parent="1">
          <mxGeometry x="-770" y="200" width="80" height="80" as="geometry" />
        </mxCell>
        <mxCell id="8kNGD3CjJhXe5o-IHTc_-23" value="1" style="edgeStyle=orthogonalEdgeStyle;rounded=0;orthogonalLoop=1;jettySize=auto;html=1;" edge="1" parent="1" source="8kNGD3CjJhXe5o-IHTc_-7" target="QGQFObyXgyorkLvWXiFo-18">
          <mxGeometry relative="1" as="geometry" />
        </mxCell>
        <mxCell id="8kNGD3CjJhXe5o-IHTc_-7" value="É coberto" style="rhombus;whiteSpace=wrap;html=1;" vertex="1" parent="1">
          <mxGeometry x="-765" y="500" width="80" height="80" as="geometry" />
        </mxCell>
        <mxCell id="8kNGD3CjJhXe5o-IHTc_-17" value="1" style="edgeStyle=orthogonalEdgeStyle;rounded=0;orthogonalLoop=1;jettySize=auto;html=1;entryX=1;entryY=0.5;entryDx=0;entryDy=0;" edge="1" parent="1" source="8kNGD3CjJhXe5o-IHTc_-8" target="QGQFObyXgyorkLvWXiFo-15">
          <mxGeometry relative="1" as="geometry" />
        </mxCell>
        <mxCell id="8kNGD3CjJhXe5o-IHTc_-8" value="Tem vários" style="rhombus;whiteSpace=wrap;html=1;" vertex="1" parent="1">
          <mxGeometry x="-460" y="348.55" width="80" height="80" as="geometry" />
        </mxCell>
        <mxCell id="8kNGD3CjJhXe5o-IHTc_-25" value="1" style="edgeStyle=orthogonalEdgeStyle;rounded=0;orthogonalLoop=1;jettySize=auto;html=1;entryX=1;entryY=0.5;entryDx=0;entryDy=0;" edge="1" parent="1" source="8kNGD3CjJhXe5o-IHTc_-9" target="QGQFObyXgyorkLvWXiFo-20">
          <mxGeometry relative="1" as="geometry" />
        </mxCell>
        <mxCell id="8kNGD3CjJhXe5o-IHTc_-9" value="Pode ter" style="rhombus;whiteSpace=wrap;html=1;" vertex="1" parent="1">
          <mxGeometry x="-550" y="685" width="80" height="80" as="geometry" />
        </mxCell>
        <mxCell id="8kNGD3CjJhXe5o-IHTc_-30" value="1" style="edgeStyle=orthogonalEdgeStyle;rounded=0;orthogonalLoop=1;jettySize=auto;html=1;" edge="1" parent="1" source="8kNGD3CjJhXe5o-IHTc_-10">
          <mxGeometry relative="1" as="geometry">
            <mxPoint x="-110" y="580" as="targetPoint" />
          </mxGeometry>
        </mxCell>
        <mxCell id="8kNGD3CjJhXe5o-IHTc_-10" value="Tem" style="rhombus;whiteSpace=wrap;html=1;" vertex="1" parent="1">
          <mxGeometry x="-150" y="685" width="80" height="80" as="geometry" />
        </mxCell>
        <mxCell id="8kNGD3CjJhXe5o-IHTc_-31" value="1" style="edgeStyle=orthogonalEdgeStyle;rounded=0;orthogonalLoop=1;jettySize=auto;html=1;" edge="1" parent="1" source="8kNGD3CjJhXe5o-IHTc_-11">
          <mxGeometry relative="1" as="geometry">
            <mxPoint x="-800.0000000000002" y="710" as="targetPoint" />
          </mxGeometry>
        </mxCell>
        <mxCell id="8kNGD3CjJhXe5o-IHTc_-32" value="n" style="edgeStyle=orthogonalEdgeStyle;rounded=0;orthogonalLoop=1;jettySize=auto;html=1;entryX=0.5;entryY=1;entryDx=0;entryDy=0;entryPerimeter=0;" edge="1" parent="1" source="8kNGD3CjJhXe5o-IHTc_-11" target="QGQFObyXgyorkLvWXiFo-39">
          <mxGeometry relative="1" as="geometry">
            <mxPoint x="-1020" y="560" as="targetPoint" />
          </mxGeometry>
        </mxCell>
        <mxCell id="8kNGD3CjJhXe5o-IHTc_-11" value="Tem" style="rhombus;whiteSpace=wrap;html=1;" vertex="1" parent="1">
          <mxGeometry x="-1060" y="670" width="80" height="80" as="geometry" />
        </mxCell>
        <mxCell id="8kNGD3CjJhXe5o-IHTc_-12" value="1" style="edgeStyle=orthogonalEdgeStyle;rounded=0;orthogonalLoop=1;jettySize=auto;html=1;entryX=0.5;entryY=1;entryDx=0;entryDy=0;entryPerimeter=0;" edge="1" parent="1" source="8kNGD3CjJhXe5o-IHTc_-6" target="QGQFObyXgyorkLvWXiFo-13">
          <mxGeometry relative="1" as="geometry" />
        </mxCell>
        <mxCell id="8kNGD3CjJhXe5o-IHTc_-18" value="n" style="edgeStyle=orthogonalEdgeStyle;rounded=0;orthogonalLoop=1;jettySize=auto;html=1;entryX=0.5;entryY=1;entryDx=0;entryDy=0;entryPerimeter=0;" edge="1" parent="1" source="8kNGD3CjJhXe5o-IHTc_-8" target="QGQFObyXgyorkLvWXiFo-34">
          <mxGeometry relative="1" as="geometry" />
        </mxCell>
        <mxCell id="8kNGD3CjJhXe5o-IHTc_-22" value="1" style="edgeStyle=orthogonalEdgeStyle;rounded=0;orthogonalLoop=1;jettySize=auto;html=1;entryX=0.5;entryY=1.028;entryDx=0;entryDy=0;entryPerimeter=0;" edge="1" parent="1" source="8kNGD3CjJhXe5o-IHTc_-7" target="QGQFObyXgyorkLvWXiFo-16">
          <mxGeometry relative="1" as="geometry" />
        </mxCell>
        <mxCell id="8kNGD3CjJhXe5o-IHTc_-26" value="n" style="edgeStyle=orthogonalEdgeStyle;rounded=0;orthogonalLoop=1;jettySize=auto;html=1;entryX=-0.012;entryY=0.81;entryDx=0;entryDy=0;entryPerimeter=0;" edge="1" parent="1" source="8kNGD3CjJhXe5o-IHTc_-9" target="8kNGD3CjJhXe5o-IHTc_-3">
          <mxGeometry relative="1" as="geometry" />
        </mxCell>
        <mxCell id="8kNGD3CjJhXe5o-IHTc_-28" value="n" style="edgeStyle=orthogonalEdgeStyle;rounded=0;orthogonalLoop=1;jettySize=auto;html=1;entryX=1.027;entryY=0.789;entryDx=0;entryDy=0;entryPerimeter=0;" edge="1" parent="1" source="8kNGD3CjJhXe5o-IHTc_-10" target="8kNGD3CjJhXe5o-IHTc_-3">
          <mxGeometry relative="1" as="geometry" />
        </mxCell>
      </root>
    </mxGraphModel>
  </diagram>
</mxfile>
